<svg width="25" height="26" viewBox="0 0 25 26" fill="none" xmlns="http://www.w3.org/2000/svg">
<path d="M18.1551 3.13309C19.3925 3.13807 20.5777 3.63181 21.4527 4.50675C22.3276 5.38169 22.8213 6.56693 22.8263 7.80426V18.1951C22.8213 19.4324 22.3276 20.6177 21.4527 21.4926C20.5777 22.3675 19.3925 22.8613 18.1551 22.8663H7.64237C6.40503 22.8613 5.21979 22.3675 4.34485 21.4926C3.46992 20.6177 2.97617 19.4324 2.97119 18.1951V7.80426C2.97617 6.56693 3.46992 5.38169 4.34485 4.50675C5.21979 3.63181 6.40503 3.13807 7.64237 3.13309H18.1551ZM18.1551 0.960449H7.64237C3.87809 0.960449 0.797852 4.0442 0.797852 7.80497V18.1951C0.797852 21.9594 3.8816 25.0396 7.64237 25.0396H18.1551C21.9194 25.0396 24.9997 21.9559 24.9997 18.1951V7.80426C24.9997 4.03999 21.9194 0.960449 18.1551 0.960449Z" fill="#FFF8CE"/>
<path d="M12.8989 8.94385C13.7011 8.94385 14.4853 9.18172 15.1522 9.62738C15.8192 10.073 16.3391 10.7065 16.646 11.4476C16.953 12.1887 17.0333 13.0042 16.8768 13.7909C16.7203 14.5777 16.3341 15.3004 15.7668 15.8676C15.1996 16.4348 14.4769 16.8211 13.6902 16.9776C12.9034 17.1341 12.0879 17.0538 11.3468 16.7468C10.6057 16.4398 9.9723 15.92 9.52664 15.253C9.08098 14.586 8.84311 13.8018 8.84311 12.9997C8.84441 11.9244 9.27213 10.8935 10.0325 10.1332C10.7928 9.37288 11.8237 8.94515 12.8989 8.94385ZM12.8989 6.77121C11.6671 6.77121 10.4629 7.13651 9.43859 7.8209C8.41432 8.50529 7.616 9.47805 7.14458 10.6162C6.67316 11.7543 6.54982 13.0066 6.79015 14.2148C7.03047 15.423 7.62368 16.5328 8.49474 17.4039C9.36581 18.2749 10.4756 18.8681 11.6838 19.1085C12.892 19.3488 14.1444 19.2255 15.2825 18.754C16.4206 18.2826 17.3933 17.4843 18.0777 16.46C18.7621 15.4358 19.1274 14.2316 19.1274 12.9997C19.1274 11.3478 18.4712 9.76355 17.3031 8.59549C16.1351 7.42743 14.5508 6.77121 12.8989 6.77121Z" fill="#FFF8CE"/>
<path d="M19.2634 7.97458C20.0789 7.97458 20.74 7.31344 20.74 6.49789C20.74 5.68233 20.0789 5.02119 19.2634 5.02119C18.4478 5.02119 17.7867 5.68233 17.7867 6.49789C17.7867 7.31344 18.4478 7.97458 19.2634 7.97458Z" fill="#FFF8CE"/>
</svg>
