<svg width="25" height="26" viewBox="0 0 25 26" fill="none" xmlns="http://www.w3.org/2000/svg">
<path d="M18.1556 3.13309C19.393 3.13807 20.5782 3.63181 21.4531 4.50675C22.3281 5.38169 22.8218 6.56693 22.8268 7.80426V18.1951C22.8218 19.4324 22.3281 20.6177 21.4531 21.4926C20.5782 22.3675 19.393 22.8613 18.1556 22.8663H7.64286C6.40552 22.8613 5.22028 22.3675 4.34534 21.4926C3.4704 20.6177 2.97666 19.4324 2.97168 18.1951V7.80426C2.97666 6.56693 3.4704 5.38169 4.34534 4.50675C5.22028 3.63181 6.40552 3.13807 7.64286 3.13309H18.1556ZM18.1556 0.960449H7.64286C3.87858 0.960449 0.79834 4.0442 0.79834 7.80497V18.1951C0.79834 21.9594 3.88209 25.0396 7.64286 25.0396H18.1556C21.9199 25.0396 25.0001 21.9559 25.0001 18.1951V7.80426C25.0001 4.03999 21.9199 0.960449 18.1556 0.960449Z" fill="#7F7956"/>
<path d="M12.8994 8.94385C13.7016 8.94385 14.4857 9.18172 15.1527 9.62738C15.8197 10.073 16.3395 10.7065 16.6465 11.4476C16.9535 12.1887 17.0338 13.0042 16.8773 13.7909C16.7208 14.5777 16.3345 15.3004 15.7673 15.8676C15.2001 16.4348 14.4774 16.8211 13.6907 16.9776C12.9039 17.1341 12.0884 17.0538 11.3473 16.7468C10.6062 16.4398 9.97279 15.92 9.52713 15.253C9.08147 14.586 8.8436 13.8018 8.8436 12.9997C8.8449 11.9244 9.27262 10.8935 10.033 10.1332C10.7933 9.37288 11.8242 8.94515 12.8994 8.94385ZM12.8994 6.77121C11.6676 6.77121 10.4633 7.13651 9.43907 7.8209C8.41481 8.50529 7.61649 9.47805 7.14507 10.6162C6.67365 11.7543 6.55031 13.0066 6.79064 14.2148C7.03096 15.423 7.62417 16.5328 8.49523 17.4039C9.3663 18.2749 10.4761 18.8681 11.6843 19.1085C12.8925 19.3488 14.1449 19.2255 15.283 18.754C16.4211 18.2826 17.3938 17.4843 18.0782 16.46C18.7626 15.4358 19.1279 14.2316 19.1279 12.9997C19.1279 11.3478 18.4717 9.76355 17.3036 8.59549C16.1356 7.42743 14.5513 6.77121 12.8994 6.77121Z" fill="#7F7956"/>
<path d="M19.2638 7.97458C20.0794 7.97458 20.7405 7.31344 20.7405 6.49789C20.7405 5.68233 20.0794 5.02119 19.2638 5.02119C18.4483 5.02119 17.7871 5.68233 17.7871 6.49789C17.7871 7.31344 18.4483 7.97458 19.2638 7.97458Z" fill="#7F7956"/>
</svg>
