<svg width="24" height="20" viewBox="0 0 24 20" fill="none" xmlns="http://www.w3.org/2000/svg">
<path d="M8.07123 19.3172C16.7251 19.3172 21.4568 12.1464 21.4568 5.93162C21.4568 5.72676 21.4568 5.52184 21.4471 5.32672C22.3642 4.66332 23.1642 3.83403 23.7984 2.88766C22.9593 3.25841 22.052 3.5121 21.0959 3.62917C22.0715 3.04375 22.813 2.12667 23.1642 1.02421C22.2569 1.5608 21.252 1.9511 20.1788 2.16569C19.3202 1.24861 18.1007 0.682739 16.7446 0.682739C14.1494 0.682739 12.0421 2.79013 12.0421 5.38529C12.0421 5.75604 12.0811 6.11699 12.1689 6.45846C8.25661 6.26335 4.79313 4.39016 2.47114 1.54132C2.07111 2.234 1.83697 3.04375 1.83697 3.90233C1.83697 5.53164 2.66626 6.97557 3.93455 7.81461C3.16383 7.79506 2.44186 7.58047 1.80768 7.22919V7.28776C1.80768 9.57073 3.42725 11.4635 5.58341 11.9025C5.19317 12.0098 4.77365 12.0684 4.34433 12.0684C4.04189 12.0684 3.74924 12.0391 3.45653 11.9805C4.05169 13.8538 5.78826 15.2098 7.84683 15.2489C6.23707 16.5075 4.20778 17.2587 2.00286 17.2587C1.62237 17.2587 1.25161 17.2392 0.880859 17.1904C2.93943 18.5368 5.41751 19.3172 8.07123 19.3172Z" fill="#FFF8CE"/>
</svg>
